Love for All and Sharing is the first step to solving all the problems of humanity.

Website I want to share. 
               
   http://www.scenetime.com
 
 
  Credit to EVERYONE for sharing and seeding back
 especially to SCENETIME.COM where i get all my 
 downloads.


 support www.scenetime.com to grow faster.

                             
                                                            
                                                   

.                 ..................................NFO:....................................

[center][img]http://leetleech.org/images/06439300181051871495.png[/img]

[title]Framed 2002 DVDRip XviD AC3-LEGi0N[/title][/center]

[img]http://leetleech.org/images/48874973695367351744.png[/img]
[color=red]General[/color]
Format: AVI
File size: 1.46 GiB
Duration: 1h 27mn
Overall bit rate: 2 381 Kbps
IMDb Rating: 5.5/10   461 votes
IMDb Link  : http://www.imdb.com/title/tt0285112/
Genre: Crime | Drama | Thriller
Source: RETAiL  

[color=red]Video[/color]
Format : MPEG-4 Visual
Format profile : Advanced Simple@L5
Format settings, BVOP: Yes
Format settings, QPel: No
Format settings, GMC : No warppoints
Format settings, Matrix : Default (H.263)
Muxing mode : Packed bitstream
Codec ID : XVID
Codec ID/Hint : XviD
Duration : 1h 27mn
Bit rate : 2 152 Kbps
Width : 720 pixels
Height : 400 pixels
Display aspect ratio : 16:9
Frame rate : 25.000 fps
Color space : YUV
Chroma subsampling : 4:2:0
Bit depth : 8 bits
Scan type : Progressive
Bits/(Pixel*Frame) : 0.299
Stream size : 1.32 GiB (90%)

[color=red]Audio[/color]
Bit rate : 224 Kbps
Channel(s) : 2 channels
Channel positions : Front: L R
Sampling rate : 48.0 KHz
Stream size : 140 MiB (9%)


[img]http://leetleech.org/images/89524873606771859129.png[/img]

The stakes are high. The trap is set. There's no one left to trust.

[img]http://leetleech.org/images/84434050717770922575.png[/img]


Rob Lowe...Mike Santini
Sam Neill... Eddie Meyers
Alicia Coppola... Lucy Santini
Peter MacNeill... Capt. MacNamara (as Peter Macneill)
Dorian Harewood... George Adams
Stewart Bick... Daniel Cole
Kandyse McClure	(as Kandyse Mcclure)
Philip Akin... Bahamian Superintendent
Mariam Bernstein... Assistant Manager
Ryan Rajendra Black... Technician (as Ryan Black)
Daniel Boiteau... Joel Santini
Kim Bourne... Suzanna Ford
Chad Bruce... Bank Customer Cop
Wesley Cade... Food Court Employee
Ernie Foort... Nick
Andrew T. Grant... Teenage Punk
Ernesto Griffith... Passenger
Deborah Grover... Mrs. Ashton
Arne MacPherson... Lookout

[color=red]GREETZ[/color]

Noir | Joshua08 | bigimac | LUSi |

kempas | KaN1vE | mike160 | skillz |

Lungbuster | Sheikh | dillon1369 |

0B5C3N3 | FLAWL3SS | AND ALL P2P!


[img]http://leetleech.org/images/95521316153253938506.png[/img]

[center][img]http://leetleech.org/images/20579889125631643445.png[/img]
[img]http://leetleech.org/images/33322071878970652828.png[/img]
[img]http://leetleech.org/images/96769046952937486966.png[/img]
[img]http://leetleech.org/images/15005432169935772428.png[/img]